# xmcd
#
# Track frame offsets:
#	150
#	21044
#	33707
#	54355
#	73296
#	87693
#	112284
#	128737
#	141470
#	161221
#	176084
#	195822
#	220775
#	239347
#	253556
#	269272
#	286539
#
# Disc length: 3989 seconds
#
# Revision: 0
# Processed by: cddbd v1.5.2PL0 Copyright (c) Steve Scherf et al.
# Submitted via: EasyCDDAExtractor 8.2.3.1
#
DISCID=030f9311
DTITLE=Doc Watson - 'Round The Table Again
DYEAR=2002
DGENRE=Bluegrass
TTITLE0=Lynchburg Town
TTITLE1=Coo Coo Bird
TTITLE2=Blues Walkin' Round My Bed
TTITLE3=She's So Sweet
TTITLE4=On A Monday
TTITLE5=Working Man Blues
TTITLE6=Jimmie's Mean Momma Blues
TTITLE7=Walking In Jerusalem
TTITLE8=Show Bizness
TTITLE9=Sincerely
TTITLE10=Battle Of Nashville
TTITLE11=You Ain't Going Nowhere
TTITLE12=C C Rider
TTITLE13=Court On High
TTITLE14=Nights In White Satin
TTITLE15=Sugar Babe
TTITLE16=(Untitled) (Outtakes)
EXTD=
EXTT0=
EXTT1=
EXTT2=
EXTT3=
EXTT4=
EXTT5=
EXTT6=
EXTT7=
EXTT8=
EXTT9=
EXTT10=
EXTT11=
EXTT12=
EXTT13=
EXTT14=
EXTT15=
EXTT16=
PLAYORDER=
